<?xml version="1.0"?><svg width="640" height="480" xmlns="http://www.w3.org/2000/svg" xmlns:xlink="http://www.w3.org/1999/xlink">
 <title>Hibiscus flower</title>

 <metadata id="metadata8159">image/svg+xml</metadata>
 <g>
  <title>Layer 1</title>
  <image id="svg_1" x="40" y="348" width="2" height="34" xlink:href="images/logo.png"/>
  <g id="svg_2">
   <path id="path7488" fill="#1c6d4f" d="m323.670471,454.5495c-17.559418,-12.676208 -17.05423,-47.672241 -50.094727,-35.196747c-31.901169,-3.162628 -39.530518,-37.709808 -24.469406,-58.201508c12.883987,-22.723663 38.259415,-38.470337 48.933395,-62.306519c-25.117432,-11.795197 -37.842133,18.214844 -45.578583,33.578979c-12.208649,22.14267 -24.326721,48.978333 -52.516083,58.924225c-32.557327,8.762604 -20.755051,-37.882233 -47.113266,-29.429108c-26.591637,7.980804 -42.770065,-17.192139 -20.296463,-31.176819c0.46669,-24.953278 3.703461,-51.559937 34.220963,-63.555878c37.704834,-22.14502 87.928604,-27.941116 130.904526,-14.483124c-20.200378,16.955963 -55.546997,6.95575 -76.148239,25.168213c-21.125565,19.21637 13.117355,38.793945 32.280075,21.778931c20.543579,-4.648163 56.447479,-39.516663 68.31842,-13.15332c-10.311646,16.448181 -38.289673,52.568451 2.868927,54.087097c26.001434,-7.971313 28.886749,36.592712 50.874359,14.825562c13.619812,-21.467194 -10.888092,-40.952728 -11.890167,-62.615906c6.481812,-25.583893 14.937531,12.296051 20.192169,21.318359c16.428284,30.945465 52.988373,56.916748 48.733002,93.941559c-11.659546,21.178986 -41.564789,28.474854 -55.291656,48.737488c-15.310913,10.380463 -41.128357,12.437683 -53.927246,-2.241486zm-22.221039,-261.30217c-50.841415,-5.897552 -106.627304,-27.964615 -124.279984,-72.616081c-12.389816,-24.792656 30.827774,-33.089966 16.444794,-55.237312c-1.663681,-27.624596 40.977325,-45.548929 64.010941,-25.307575c19.245026,17.407066 43.601929,-13.946928 60.94989,10.106472c21.345215,19.294228 12.639679,45.737854 9.784515,68.945724c-0.763245,21.379768 4.949799,42.57766 13.688324,62.483604c-16.818085,5.649597 -22.275879,-29.542419 -33.597748,-39.441071c-9.367188,-16.03244 -22.448883,-42.943756 -48.716522,-34.866096c-17.652725,16.346565 7.629333,37.773582 15.859924,53.761162c6.756348,9.66243 52.01651,29.78096 25.855865,32.171173l0,0zm183.376862,-27.393082c-32.675446,13.436722 -59.374176,35.477798 -81.921844,59.488739c24.494232,8.729477 41.798218,-27.211227 65.158539,-13.195816c5.383667,11.393723 -7.703461,25.746841 16.162018,23.304672c30.547699,-9.22316 45.375397,31.500488 12.403503,35.541626c-17.22168,4.272644 -49.861267,-17.348022 -35.857178,8.871216c9.218933,29.15741 -42.48175,22.853546 -48.538177,1.341522c-5.485168,-11.967651 -25.627899,-28.425217 -26.108276,-5.420502c2.440552,21.589966 15.879089,41.793549 30.849579,58.938416c17.91629,18.162872 42.652039,36.101349 71.69809,35.980896c31.102173,-2.515381 51.697998,-28.888153 53.216064,-54.15094c12.307495,-20.085358 47.214844,-16.717377 59.203796,-38.352142c18.333557,-21.693878 16.719421,-58.515686 -12.903137,-72.346832c-18.701416,-17.463837 -27.181824,-50.572662 -62.393982,-46.602325c-14.015045,-0.396805 -27.920319,2.364258 -40.968994,6.601471zm-13.103668,-136.760098c-23.569031,2.472881 -27.843597,45.38361 -49.210754,20.118519c-25.526398,-12.671505 -48.450165,10.659187 -60.299225,27.707268c-23.651245,37.523201 -16.005524,83.284653 0.656097,121.584976c13.548492,10.248154 -2.83316,-19.334396 1.866882,-25.64772c2.314392,-15.536438 5.117401,-46.394447 26.638275,-47.894203c5.754333,12.910011 20.963654,22.995293 26.503815,3.030296c15.190125,-21.34671 54.748077,-0.245697 26.446167,17.477921c-19.945099,19.452438 -49.858612,38.711227 -51.299927,66.203537c18.959412,-2.824783 32.543549,-29.627411 54.259399,-36.722565c24.623199,-14.986115 54.17981,-22.18042 79.678802,-35.534485c26.750793,-14.794868 28.999207,-49.578293 0.065857,-61.423119c-0.211426,-23.873901 -8.453003,-56.973337 -45.622559,-50.952925l-4.922394,0.800686l-4.760437,1.251814l0,0z"/>
   <path id="path7490" fill="#1c6d4f" d="m74.418617,266.170502c-10.207275,-6.99118 -39.132442,4.794586 -33.425377,-14.799606c-5.861633,-8.960953 -27.004501,-17.933746 -9.326298,-27.96228c13.251629,-7.347794 -3.580767,-21.684479 12.407692,-27.837143c10.959534,-8.259567 18.069462,4.166336 12.166916,11.948669c3.560757,17.159164 29.14484,13.906815 41.943722,6.729019c12.906006,-3.590012 6.704185,-14.849106 -4.70829,-13.715363c-17.570351,-4.265549 -0.980095,-25.543793 9.976639,-12.487335c4.008263,12.614838 18.58889,24.053482 33.133858,14.494827c10.146835,-5.708618 1.567612,-13.174454 -7.349335,-13.564209c-13.004829,-4.837158 -4.129059,-25.546127 7.818771,-15.571945c5.880539,10.817459 12.598465,29.910904 31.011688,22.938629c12.53804,-5.914154 -0.785172,-15.59552 -8.013733,-18.861984c-8.837341,-12.973801 19.637573,-19.830338 16.80162,-3.474335c-2.078262,16.59697 16.757751,21.528595 32.216888,17.881821c28.260788,-2.968903 57.051376,-0.193649 84.686295,5.309494c27.1297,5.982681 54.056366,16.237946 74.094788,33.373444c9.696594,13.380066 -8.708405,32.660065 -25.897095,26.398743c-20.315765,-4.185242 -35.453674,-17.85582 -54.893677,-23.895172c-36.041107,-15.097153 -75.43985,-25.87677 -115.859894,-25.765762c-18.923843,2.949936 0.99379,27.622208 -17.024033,30.650085c-16.845566,-2.146912 -7.082993,-21.426941 1.284836,-25.262619c-6.503769,-11.70549 -32.323952,-1.712387 -31.011665,10.413513c2.413177,9.388504 -0.466705,27.28685 -15.615646,17.47554c-11.728203,-10.635559 16.230614,-14.157074 8.683556,-24.027374c-12.170174,-6.181046 -25.921684,6.010971 -34.816704,12.53215c-12.999313,11.341782 9.875099,22.324478 3.349335,34.155182c-2.767303,3.004364 -7.486572,3.615997 -11.634857,2.924011z"/>
  </g>
  <path d="m111,146" id="svg_3" stroke-width="5" stroke="#000000" fill="none"/>
 </g>
</svg>